<svg width="3804" height="1874" xmlns="http://www.w3.org/2000/svg" xmlns:xlink="http://www.w3.org/1999/xlink" xml:space="preserve" overflow="hidden"><defs><clipPath id="clip0"><rect x="2608" y="42" width="3804" height="1874"/></clipPath><clipPath id="clip1"><rect x="3359" y="294" width="844" height="121"/></clipPath><clipPath id="clip2"><rect x="4753" y="291" width="858" height="124"/></clipPath><clipPath id="clip3"><rect x="4753" y="291" width="858" height="124"/></clipPath><clipPath id="clip4"><rect x="4753" y="291" width="858" height="124"/></clipPath><clipPath id="clip5"><rect x="2616" y="399" width="1656" height="1515"/></clipPath><clipPath id="clip6"><rect x="2761" y="450" width="1441" height="1357"/></clipPath><clipPath id="clip7"><rect x="2761" y="450" width="1441" height="1357"/></clipPath><clipPath id="clip8"><rect x="2761" y="450" width="1441" height="1357"/></clipPath><clipPath id="clip9"><rect x="2761" y="450" width="1441" height="1357"/></clipPath><clipPath id="clip10"><rect x="2616" y="399" width="1656" height="1515"/></clipPath><clipPath id="clip11"><rect x="2616" y="399" width="1656" height="1515"/></clipPath><clipPath id="clip12"><rect x="2616" y="399" width="1656" height="1515"/></clipPath><clipPath id="clip13"><rect x="2616" y="399" width="1656" height="1515"/></clipPath><clipPath id="clip14"><rect x="2616" y="399" width="1656" height="1515"/></clipPath><clipPath id="clip15"><rect x="2616" y="399" width="1656" height="1515"/></clipPath><clipPath id="clip16"><rect x="2616" y="399" width="1656" height="1515"/></clipPath><clipPath id="clip17"><rect x="2616" y="399" width="1656" height="1515"/></clipPath><clipPath id="clip18"><rect x="2616" y="399" width="1656" height="1515"/></clipPath><clipPath id="clip19"><rect x="2616" y="399" width="1656" height="1515"/></clipPath><clipPath id="clip20"><rect x="2616" y="399" width="1656" height="1515"/></clipPath><clipPath id="clip21"><rect x="2616" y="399" width="1656" height="1515"/></clipPath><clipPath id="clip22"><rect x="2616" y="399" width="1656" height="1515"/></clipPath><clipPath id="clip23"><rect x="2616" y="399" width="1656" height="1515"/></clipPath><clipPath id="clip24"><rect x="2616" y="399" width="1656" height="1515"/></clipPath><clipPath id="clip25"><rect x="2616" y="399" width="1656" height="1515"/></clipPath><clipPath id="clip26"><rect x="2616" y="399" width="1656" height="1515"/></clipPath><clipPath id="clip27"><rect x="2616" y="399" width="1656" height="1515"/></clipPath><clipPath id="clip28"><rect x="2616" y="399" width="1656" height="1515"/></clipPath><clipPath id="clip29"><rect x="4696" y="400" width="1652" height="1515"/></clipPath><clipPath id="clip30"><rect x="4762" y="451" width="1483" height="1358"/></clipPath><clipPath id="clip31"><rect x="4762" y="451" width="1483" height="1358"/></clipPath><clipPath id="clip32"><rect x="4762" y="451" width="1483" height="1358"/></clipPath><clipPath id="clip33"><rect x="4762" y="451" width="1483" height="1358"/></clipPath><clipPath id="clip34"><rect x="4696" y="400" width="1652" height="1515"/></clipPath><clipPath id="clip35"><rect x="4696" y="400" width="1652" height="1515"/></clipPath><clipPath id="clip36"><rect x="4696" y="400" width="1652" height="1515"/></clipPath><clipPath id="clip37"><rect x="4696" y="400" width="1652" height="1515"/></clipPath><clipPath id="clip38"><rect x="4696" y="400" width="1652" height="1515"/></clipPath><clipPath id="clip39"><rect x="4696" y="400" width="1652" height="1515"/></clipPath><clipPath id="clip40"><rect x="4696" y="400" width="1652" height="1515"/></clipPath><clipPath id="clip41"><rect x="2649" y="66" width="3652" height="133"/></clipPath><clipPath id="clip42"><rect x="2649" y="66" width="3652" height="133"/></clipPath><clipPath id="clip43"><rect x="2649" y="66" width="3652" height="133"/></clipPath><clipPath id="clip44"><rect x="2649" y="66" width="3652" height="133"/></clipPath><clipPath id="clip45"><rect x="2649" y="66" width="3652" height="133"/></clipPath><clipPath id="clip46"><rect x="2649" y="66" width="3652" height="133"/></clipPath></defs><g clip-path="url(#clip0)" transform="translate(-2608 -42)"><rect x="2608" y="41.9999" width="3804" height="1874" fill="#FFFFFF"/><rect x="4218" y="1367" width="522" height="448" fill="#FFFFFF"/><text font-family="Arial,Arial_MSFontService,sans-serif" font-weight="700" font-size="64" transform="matrix(1 0 0 1 4286.82 1530)">Very</text><text font-family="Arial,Arial_MSFontService,sans-serif" font-weight="700" font-size="64" transform="matrix(1 0 0 1 4443.79 1530)">Low</text><text font-family="Arial,Arial_MSFontService,sans-serif" font-weight="700" font-size="64" transform="matrix(1 0 0 1 4589.91 1530)">FS</text><text font-family="Arial,Arial_MSFontService,sans-serif" font-weight="400" font-size="48" transform="matrix(1 0 0 1 4306.84 1589)">Hisp: 540 (89%)</text><text font-family="Arial,Arial_MSFontService,sans-serif" font-weight="400" font-size="48" transform="matrix(1 0 0 1 4274.76 1644)">Non</text><text font-family="Arial,Arial_MSFontService,sans-serif" font-weight="400" font-size="48" transform="matrix(1 0 0 1 4363.06 1644)">-</text><text font-family="Arial,Arial_MSFontService,sans-serif" font-weight="400" font-size="48" transform="matrix(1 0 0 1 4379.08 1644)">Hisp:64 (11%)</text><rect x="4225" y="920" width="522" height="411" fill="#FFFFFF"/><text font-family="Arial,Arial_MSFontService,sans-serif" font-weight="700" font-size="64" transform="matrix(1 0 0 1 4371.73 1065)">Low</text><text font-family="Arial,Arial_MSFontService,sans-serif" font-weight="700" font-size="64" transform="matrix(1 0 0 1 4517.85 1065)">FS</text><text font-family="Arial,Arial_MSFontService,sans-serif" font-weight="400" font-size="48" transform="matrix(1 0 0 1 4313.27 1124)">Hisp: 176 (91%)</text><text font-family="Arial,Arial_MSFontService,sans-serif" font-weight="400" font-size="48" transform="matrix(1 0 0 1 4294.55 1179)">Non</text><text font-family="Arial,Arial_MSFontService,sans-serif" font-weight="400" font-size="48" transform="matrix(1 0 0 1 4382.85 1179)">-</text><text font-family="Arial,Arial_MSFontService,sans-serif" font-weight="400" font-size="48" transform="matrix(1 0 0 1 4398.87 1179)">Hisp:18 (9%)</text><rect x="4222" y="449" width="516" height="410" fill="#FFFFFF"/><text font-family="Arial,Arial_MSFontService,sans-serif" font-weight="700" font-size="64" transform="matrix(1 0 0 1 4267.75 585)">Marginal/High</text><text font-family="Arial,Arial_MSFontService,sans-serif" font-weight="700" font-size="64" transform="matrix(1 0 0 1 4438.85 659)">FS</text><text font-family="Arial,Arial_MSFontService,sans-serif" font-weight="400" font-size="48" transform="matrix(1 0 0 1 4307.33 718)">Hisp: 18 (100%)</text><text font-family="Arial,Arial_MSFontService,sans-serif" font-weight="400" font-size="48" transform="matrix(1 0 0 1 4302.01 773)">Non</text><text font-family="Arial,Arial_MSFontService,sans-serif" font-weight="400" font-size="48" transform="matrix(1 0 0 1 4390.31 773)">-</text><text font-family="Arial,Arial_MSFontService,sans-serif" font-weight="400" font-size="48" transform="matrix(1 0 0 1 4406.33 773)">Hisp:0 (0%)</text><path d="M4195 893 4753.56 893" stroke="#4472C4" stroke-width="2.29167" stroke-miterlimit="8" fill="none" fill-rule="evenodd"/><path d="M4194 1358 4751.42 1358" stroke="#4472C4" stroke-width="2.29167" stroke-miterlimit="8" fill="none" fill-rule="evenodd"/><rect x="3359" y="295" width="844" height="120" fill="#FFFFFF"/><g clip-path="url(#clip1)"><text font-family="Arial Black,Arial Black_MSFontService,sans-serif" font-weight="900" font-size="55" transform="matrix(1 0 0 1 3873.55 372)">Hispanics</text></g><rect x="4753" y="291" width="857" height="124" fill="#FFFFFF"/><g clip-path="url(#clip2)"><text font-family="Arial Black,Arial Black_MSFontService,sans-serif" font-weight="900" font-size="55" transform="matrix(1 0 0 1 4786.13 369)">Non</text></g><g clip-path="url(#clip3)"><text font-family="Arial Black,Arial Black_MSFontService,sans-serif" font-weight="900" font-size="55" transform="matrix(1 0 0 1 4905.32 369)">-</text></g><g clip-path="url(#clip4)"><text font-family="Arial Black,Arial Black_MSFontService,sans-serif" font-weight="900" font-size="55" transform="matrix(1 0 0 1 4923.63 369)">Hispanics</text></g><rect x="2617" y="399" width="1656" height="1515" fill="#FFFFFF"/><g clip-path="url(#clip5)"><path d="M4199.5 450.5 4199.5 1804.5M3911.63 450.5 3911.63 1804.5M3624.62 450.5 3624.62 1804.5M3336.61 450.5 3336.61 1804.5M3049.6 450.5 3049.6 1804.5M2761.5 450.5 2761.5 1804.5" stroke="#D9D9D9" stroke-width="3.4375" stroke-linejoin="round" stroke-miterlimit="10" fill="none"/></g><g clip-path="url(#clip6)"><path d="M4093.13 1779.06 4199.14 1779.06 4199.14 1679.06 4093.13 1679.06ZM4142.14 1328.04 4199.14 1328.04 4199.14 1228.04 4142.14 1228.04Z" stroke="#ADD8E6" stroke-width="10.3125" stroke-linejoin="round" stroke-miterlimit="10" fill="#ADD8E6"/></g><g clip-path="url(#clip7)"><path d="M3989.13 1679.06 4199.14 1679.06 4199.14 1579.05 3989.13 1579.05ZM4069.13 1228.04 4199.14 1228.04 4199.14 1128.04 4069.13 1128.04ZM4119.14 777.026 4199.14 777.026 4199.14 676.022 4119.14 676.022Z" stroke="#5CACEE" stroke-width="10.3125" stroke-linejoin="round" stroke-miterlimit="10" fill="#5CACEE"/></g><g clip-path="url(#clip8)"><path d="M3765.12 1579.05 4199.14 1579.05 4199.14 1478.05 3765.12 1478.05ZM3799.12 1128.04 4199.14 1128.04 4199.14 1027.03 3799.12 1027.03ZM3640.12 676.022 4199.14 676.022 4199.14 576.019 3640.12 576.019Z" stroke="#4F94CD" stroke-width="10.3125" stroke-linejoin="round" stroke-miterlimit="10" fill="#4F94CD"/></g><g clip-path="url(#clip9)"><path d="M3512.12 1478.05 4199.14 1478.05 4199.14 1378.05 3512.12 1378.05ZM3350.11 1027.03 4199.14 1027.03 4199.14 927.03 3350.11 927.03ZM3400.11 576.019 4199.14 576.019 4199.14 476.016 3400.11 476.016Z" stroke="#36648B" stroke-width="10.3125" stroke-linejoin="round" stroke-miterlimit="10" fill="#36648B"/></g><g clip-path="url(#clip10)"><text fill="#404040" font-family="Calibri,Calibri_MSFontService,sans-serif" font-weight="400" font-size="48" transform="matrix(1 0 0 1 4006.59 1746)">7%</text></g><g clip-path="url(#clip11)"><text fill="#404040" font-family="Calibri,Calibri_MSFontService,sans-serif" font-weight="400" font-size="48" transform="matrix(1 0 0 1 4055.91 1295)">4%</text></g><g clip-path="url(#clip12)"><text fill="#404040" font-family="Calibri,Calibri_MSFontService,sans-serif" font-weight="400" font-size="48" transform="matrix(1 0 0 1 3878.36 1645)">15%</text></g><g clip-path="url(#clip13)"><text fill="#404040" font-family="Calibri,Calibri_MSFontService,sans-serif" font-weight="400" font-size="48" transform="matrix(1 0 0 1 3982.38 1194)">9%</text></g><g clip-path="url(#clip14)"><text fill="#404040" font-family="Calibri,Calibri_MSFontService,sans-serif" font-weight="400" font-size="48" transform="matrix(1 0 0 1 4033.21 743)">6%</text></g><g clip-path="url(#clip15)"><text fill="#404040" font-family="Calibri,Calibri_MSFontService,sans-serif" font-weight="400" font-size="48" transform="matrix(1 0 0 1 3654.7 1545)">30%</text></g><g clip-path="url(#clip16)"><text fill="#404040" font-family="Calibri,Calibri_MSFontService,sans-serif" font-weight="400" font-size="48" transform="matrix(1 0 0 1 3688.4 1094)">28%</text></g><g clip-path="url(#clip17)"><text fill="#404040" font-family="Calibri,Calibri_MSFontService,sans-serif" font-weight="400" font-size="48" transform="matrix(1 0 0 1 3529.55 643)">39%</text></g><g clip-path="url(#clip18)"><text fill="#404040" font-family="Calibri,Calibri_MSFontService,sans-serif" font-weight="400" font-size="48" transform="matrix(1 0 0 1 3401.74 1445)">48%</text></g><g clip-path="url(#clip19)"><text fill="#404040" font-family="Calibri,Calibri_MSFontService,sans-serif" font-weight="400" font-size="48" transform="matrix(1 0 0 1 3239.08 994)">59%</text></g><g clip-path="url(#clip20)"><text fill="#404040" font-family="Calibri,Calibri_MSFontService,sans-serif" font-weight="400" font-size="48" transform="matrix(1 0 0 1 3289.91 543)">56%</text></g><g clip-path="url(#clip21)"><rect x="2708" y="1754" width="25.9998" height="25.9998" stroke="#36648B" stroke-width="10.3125" stroke-linejoin="round" stroke-miterlimit="10" fill="#36648B"/></g><g clip-path="url(#clip22)"><text fill="#595959" font-family="Arial,Arial_MSFontService,sans-serif" font-weight="400" font-size="50" transform="matrix(1 0 0 1 2744.58 1783)">Work-study</text></g><g clip-path="url(#clip23)"><rect x="3035" y="1754" width="26.0002" height="25.9998" stroke="#4F94CD" stroke-width="10.3125" stroke-linejoin="round" stroke-miterlimit="10" fill="#4F94CD"/></g><g clip-path="url(#clip24)"><text fill="#595959" font-family="Arial,Arial_MSFontService,sans-serif" font-weight="400" font-size="50" transform="matrix(1 0 0 1 3071.73 1783)">Loans</text></g><g clip-path="url(#clip25)"><rect x="3245" y="1754" width="25" height="25.9998" stroke="#5CACEE" stroke-width="10.3125" stroke-linejoin="round" stroke-miterlimit="10" fill="#5CACEE"/></g><g clip-path="url(#clip26)"><text fill="#595959" font-family="Arial,Arial_MSFontService,sans-serif" font-weight="400" font-size="50" transform="matrix(1 0 0 1 3281.34 1783)">Scholarship</text></g><g clip-path="url(#clip27)"><rect x="3581" y="1754" width="25" height="25.9998" stroke="#ADD8E6" stroke-width="10.3125" stroke-linejoin="round" stroke-miterlimit="10" fill="#ADD8E6"/></g><g clip-path="url(#clip28)"><text fill="#595959" font-family="Arial,Arial_MSFontService,sans-serif" font-weight="400" font-size="50" transform="matrix(1 0 0 1 3617.04 1783)">Other</text></g><rect x="4696" y="400" width="1652" height="1515" fill="#FFFFFF"/><g clip-path="url(#clip29)"><path d="M4762.5 451.5 4762.5 1806.5M5058.67 451.5 5058.67 1806.5M5354.68 451.5 5354.68 1806.5M5650.69 451.5 5650.69 1806.5M5946.7 451.5 5946.7 1806.5M6242.5 451.5 6242.5 1806.5" stroke="#D9D9D9" stroke-width="3.4375" stroke-linejoin="round" stroke-miterlimit="10" fill="none"/></g><g clip-path="url(#clip30)"><path d="M4927.16 1330.04 4762 1330.04 4762 1229.04 4927.16 1229.04Z" stroke="#ADD8E6" stroke-width="10.3125" stroke-linejoin="round" stroke-miterlimit="10" fill="#ADD8E6"/></g><g clip-path="url(#clip31)"><path d="M4855.16 1681.06 4762 1681.06 4762 1581.05 4855.16 1581.05ZM4844.16 1229.04 4762 1229.04 4762 1129.04 4844.16 1129.04Z" stroke="#5CACEE" stroke-width="10.3125" stroke-linejoin="round" stroke-miterlimit="10" fill="#5CACEE"/></g><g clip-path="url(#clip32)"><path d="M4832.16 1581.05 4762 1581.05 4762 1480.05 4832.16 1480.05ZM5091.17 1129.04 4762 1129.04 4762 1029.03 5091.17 1029.03Z" stroke="#4F94CD" stroke-width="10.3125" stroke-linejoin="round" stroke-miterlimit="10" fill="#4F94CD"/></g><g clip-path="url(#clip33)"><path d="M6080.2 1480.05 4762 1480.05 4762 1380.05 6080.2 1380.05ZM5667.19 1029.03 4762 1029.03 4762 928.03 5667.19 928.03Z" stroke="#36648B" stroke-width="10.3125" stroke-linejoin="round" stroke-miterlimit="10" fill="#36648B"/></g><g clip-path="url(#clip34)"><text fill="#404040" font-family="Calibri,Calibri_MSFontService,sans-serif" font-weight="400" font-size="48" transform="matrix(1 0 0 1 4954.33 1296)">11%</text></g><g clip-path="url(#clip35)"><text fill="#404040" font-family="Calibri,Calibri_MSFontService,sans-serif" font-weight="400" font-size="48" transform="matrix(1 0 0 1 4882.38 1648)">6%</text></g><g clip-path="url(#clip36)"><text fill="#404040" font-family="Calibri,Calibri_MSFontService,sans-serif" font-weight="400" font-size="48" transform="matrix(1 0 0 1 4872.11 1196)">6%</text></g><g clip-path="url(#clip37)"><text fill="#404040" font-family="Calibri,Calibri_MSFontService,sans-serif" font-weight="400" font-size="48" transform="matrix(1 0 0 1 4859.26 1547)">5%</text></g><g clip-path="url(#clip38)"><text fill="#404040" font-family="Calibri,Calibri_MSFontService,sans-serif" font-weight="400" font-size="48" transform="matrix(1 0 0 1 5118.79 1096)">22%</text></g><g clip-path="url(#clip39)"><text fill="#404040" font-family="Calibri,Calibri_MSFontService,sans-serif" font-weight="400" font-size="48" transform="matrix(1 0 0 1 6108.11 1447)">89%</text></g><g clip-path="url(#clip40)"><text fill="#404040" font-family="Calibri,Calibri_MSFontService,sans-serif" font-weight="400" font-size="48" transform="matrix(1 0 0 1 5694.39 995)">61%</text></g><rect x="2649" y="66" width="3652" height="133" fill="#FFFFFF"/><g clip-path="url(#clip41)"><text font-family="Calibri,Calibri_MSFontService,sans-serif" font-weight="700" font-size="83" transform="matrix(1 0 0 1 2746.59 161)">Hispanic</text></g><g clip-path="url(#clip42)"><text font-family="Calibri,Calibri_MSFontService,sans-serif" font-weight="700" font-size="83" transform="matrix(1 0 0 1 3054.49 161)">vs Non</text></g><g clip-path="url(#clip43)"><text font-family="Calibri,Calibri_MSFontService,sans-serif" font-weight="700" font-size="83" transform="matrix(1 0 0 1 3288.04 161)">-</text></g><g clip-path="url(#clip44)"><text font-family="Calibri,Calibri_MSFontService,sans-serif" font-weight="700" font-size="83" transform="matrix(1 0 0 1 3313.29 161)">Hispanics Distribution of Federal Aid Granted </text></g><g clip-path="url(#clip45)"><text font-family="Calibri,Calibri_MSFontService,sans-serif" font-weight="700" font-size="83" transform="matrix(1 0 0 1 4878.52 161)">by U.S.</text></g><g clip-path="url(#clip46)"><text font-family="Calibri,Calibri_MSFontService,sans-serif" font-weight="700" font-size="83" transform="matrix(1 0 0 1 5136.13 161)">Deparment of Agricultura Food </text></g></g></svg>