<svg width="5756" height="2540" xmlns="http://www.w3.org/2000/svg" xmlns:xlink="http://www.w3.org/1999/xlink" xml:space="preserve" overflow="hidden"><defs><clipPath id="clip0"><rect x="864" y="4852" width="5756" height="2540"/></clipPath><clipPath id="clip1"><rect x="2224" y="5573" width="3042" height="1604"/></clipPath><clipPath id="clip2"><rect x="2224" y="5573" width="3042" height="1604"/></clipPath><clipPath id="clip3"><rect x="2224" y="5573" width="3042" height="1604"/></clipPath><clipPath id="clip4"><rect x="2224" y="5573" width="3042" height="1604"/></clipPath><clipPath id="clip5"><rect x="2114" y="5522" width="3249" height="1768"/></clipPath><clipPath id="clip6"><rect x="2114" y="5522" width="3249" height="1768"/></clipPath><clipPath id="clip7"><rect x="2114" y="5522" width="3249" height="1768"/></clipPath><clipPath id="clip8"><rect x="2114" y="5522" width="3249" height="1768"/></clipPath><clipPath id="clip9"><rect x="2114" y="5522" width="3249" height="1768"/></clipPath><clipPath id="clip10"><rect x="2114" y="5522" width="3249" height="1768"/></clipPath><clipPath id="clip11"><rect x="2114" y="5522" width="3249" height="1768"/></clipPath><clipPath id="clip12"><rect x="2114" y="5522" width="3249" height="1768"/></clipPath><clipPath id="clip13"><rect x="2026" y="5201" width="3398" height="284"/></clipPath><clipPath id="clip14"><rect x="2026" y="5201" width="3398" height="284"/></clipPath><clipPath id="clip15"><rect x="1851" y="4974" width="3723" height="261"/></clipPath><clipPath id="clip16"><rect x="1851" y="4974" width="3723" height="261"/></clipPath><clipPath id="clip17"><rect x="2212" y="5501" width="2824" height="94"/></clipPath><clipPath id="clip18"><rect x="2212" y="5501" width="2824" height="94"/></clipPath><clipPath id="clip19"><rect x="2212" y="5501" width="2824" height="94"/></clipPath><clipPath id="clip20"><rect x="2212" y="5501" width="2824" height="94"/></clipPath><clipPath id="clip21"><rect x="2212" y="5501" width="2824" height="94"/></clipPath><clipPath id="clip22"><rect x="2212" y="5501" width="2824" height="94"/></clipPath><clipPath id="clip23"><rect x="2212" y="5501" width="2824" height="94"/></clipPath><clipPath id="clip24"><rect x="5767" y="5614" width="731" height="1530"/></clipPath><clipPath id="clip25"><rect x="5224" y="5568" width="1274" height="1619"/></clipPath><clipPath id="clip26"><rect x="5224" y="5568" width="1274" height="1619"/></clipPath><clipPath id="clip27"><rect x="5224" y="5568" width="1274" height="1619"/></clipPath><clipPath id="clip28"><rect x="5442" y="6939" width="1028" height="810"/></clipPath><clipPath id="clip29"><rect x="5224" y="5568" width="1274" height="1619"/></clipPath><clipPath id="clip30"><rect x="5520" y="6634" width="743" height="810"/></clipPath><clipPath id="clip31"><rect x="5224" y="5568" width="1274" height="1619"/></clipPath><clipPath id="clip32"><rect x="5447" y="6023" width="1000" height="810"/></clipPath><clipPath id="clip33"><rect x="5224" y="5568" width="1274" height="1619"/></clipPath><clipPath id="clip34"><rect x="5442" y="5718" width="1028" height="810"/></clipPath><clipPath id="clip35"><rect x="5224" y="5568" width="1274" height="1619"/></clipPath><clipPath id="clip36"><rect x="5224" y="5568" width="1274" height="1619"/></clipPath><clipPath id="clip37"><rect x="5224" y="5568" width="1274" height="1619"/></clipPath><clipPath id="clip38"><rect x="5224" y="5568" width="1274" height="1619"/></clipPath><clipPath id="clip39"><rect x="975" y="5574" width="736" height="1604"/></clipPath><clipPath id="clip40"><rect x="975" y="5526" width="1275" height="1697"/></clipPath><clipPath id="clip41"><rect x="975" y="5526" width="1275" height="1697"/></clipPath><clipPath id="clip42"><rect x="975" y="5526" width="1275" height="1697"/></clipPath><clipPath id="clip43"><rect x="975" y="5526" width="1275" height="1697"/></clipPath><clipPath id="clip44"><rect x="975" y="5526" width="1275" height="1697"/></clipPath><clipPath id="clip45"><rect x="975" y="5526" width="1275" height="1697"/></clipPath><clipPath id="clip46"><rect x="975" y="5526" width="1275" height="1697"/></clipPath><clipPath id="clip47"><rect x="975" y="5526" width="1275" height="1697"/></clipPath><clipPath id="clip48"><rect x="975" y="5526" width="1275" height="1697"/></clipPath><clipPath id="clip49"><rect x="975" y="5526" width="1275" height="1697"/></clipPath></defs><g clip-path="url(#clip0)" transform="translate(-864 -4852)"><rect x="864" y="4852" width="5756" height="2540" fill="#FFFFFF"/><g clip-path="url(#clip1)"><path d="M4310.64 7120.73 3743.62 7120.73 3743.62 6907.73 4310.64 6907.73ZM4310.64 6800.72 3743.62 6800.72 3743.62 6586.72 4310.64 6586.72ZM4351.64 6160.7 3743.62 6160.7 3743.62 5946.7 4351.64 5946.7ZM4229.64 5839.69 3743.62 5839.69 3743.62 5626.68 4229.64 5626.68Z" stroke="#FFFFFF" stroke-width="3.4375" stroke-linejoin="round" stroke-miterlimit="10" fill="#839CB2"/></g><g clip-path="url(#clip2)"><path d="M4553.65 7120.73 4310.64 7120.73 4310.64 6907.73 4553.65 6907.73ZM4432.65 6800.72 4310.64 6800.72 4310.64 6586.72 4432.65 6586.72ZM4574.65 6160.7 4351.64 6160.7 4351.64 5946.7 4574.65 5946.7ZM4472.65 5839.69 4229.64 5839.69 4229.64 5626.68 4472.65 5626.68Z" stroke="#FFFFFF" stroke-width="3.4375" stroke-linejoin="round" stroke-miterlimit="10" fill="#3E6487"/></g><g clip-path="url(#clip3)"><path d="M3135.6 7120.73 3743.62 7120.73 3743.62 6907.73 3135.6 6907.73ZM3399.61 6800.72 3743.62 6800.72 3743.62 6586.72 3399.61 6586.72ZM3176.6 6160.7 3743.62 6160.7 3743.62 5946.7 3176.6 5946.7ZM3074.6 5839.69 3743.62 5839.69 3743.62 5626.68 3074.6 5626.68Z" stroke="#FFFFFF" stroke-width="3.4375" stroke-linejoin="round" stroke-miterlimit="10" fill="#EDAD88"/></g><g clip-path="url(#clip4)"><path d="M2527.58 7120.73 3135.6 7120.73 3135.6 6907.73 2527.58 6907.73ZM2406.58 6800.72 3399.61 6800.72 3399.61 6586.72 2406.58 6586.72ZM2527.58 6160.7 3176.6 6160.7 3176.6 5946.7 2527.58 5946.7ZM2426.58 5839.69 3074.6 5839.69 3074.6 5626.68 2426.58 5626.68Z" stroke="#FFFFFF" stroke-width="3.4375" stroke-linejoin="round" stroke-miterlimit="10" fill="#E36C33"/></g><g clip-path="url(#clip5)"><path d="M0 0 0.000360892 1601" stroke="#D9D9D9" stroke-width="3.4375" stroke-linejoin="round" stroke-miterlimit="10" fill="none" fill-rule="evenodd" transform="matrix(1 0 0 -1 3743.5 7174.5)"/></g><g clip-path="url(#clip6)"><text fill="#A6A6A6" font-family="Arial,Arial_MSFontService,sans-serif" font-weight="400" font-size="50" transform="matrix(1 0 0 1 2165.19 7251)">-75%</text></g><g clip-path="url(#clip7)"><text fill="#A6A6A6" font-family="Arial,Arial_MSFontService,sans-serif" font-weight="400" font-size="50" transform="matrix(1 0 0 1 2671.7 7251)">-50%</text></g><g clip-path="url(#clip8)"><text fill="#A6A6A6" font-family="Arial,Arial_MSFontService,sans-serif" font-weight="400" font-size="50" transform="matrix(1 0 0 1 3178.2 7251)">-25%</text></g><g clip-path="url(#clip9)"><text fill="#A6A6A6" font-family="Arial,Arial_MSFontService,sans-serif" font-weight="400" font-size="50" transform="matrix(1 0 0 1 3707.13 7251)">0%</text></g><g clip-path="url(#clip10)"><text fill="#A6A6A6" font-family="Arial,Arial_MSFontService,sans-serif" font-weight="400" font-size="50" transform="matrix(1 0 0 1 4199.61 7251)">25%</text></g><g clip-path="url(#clip11)"><text fill="#A6A6A6" font-family="Arial,Arial_MSFontService,sans-serif" font-weight="400" font-size="50" transform="matrix(1 0 0 1 4706.11 7251)">50%</text></g><g clip-path="url(#clip12)"><text fill="#A6A6A6" font-family="Arial,Arial_MSFontService,sans-serif" font-weight="400" font-size="50" transform="matrix(1 0 0 1 5212.62 7251)">75%</text></g><g clip-path="url(#clip13)"><text font-family="Arial,Arial_MSFontService,sans-serif" font-weight="400" font-size="73" transform="matrix(1 0 0 1 2059.31 5328)">Replies</text></g><text font-family="Arial,Arial_MSFontService,sans-serif" font-weight="400" font-size="73" transform="matrix(1 0 0 1 2324.27 5328)">to the question, </text><text font-family="Arial,Arial_MSFontService,sans-serif" font-style="italic" font-weight="400" font-size="73" transform="matrix(1 0 0 1 2846.17 5328)">How often did you have difficulties concentrating at school because of food, </text><g clip-path="url(#clip14)"><text font-family="Arial,Arial_MSFontService,sans-serif" font-style="italic" font-weight="400" font-size="73" transform="matrix(1 0 0 1 2059.31 5412)">rent or other neccesities?, </text></g><text font-family="Arial,Arial_MSFontService,sans-serif" font-weight="400" font-size="73" transform="matrix(1 0 0 1 2923.54 5412)">survey applied to UTEP students in 2022.</text><g clip-path="url(#clip15)"><text font-family="Arial,Arial_MSFontService,sans-serif" font-weight="700" font-size="147" transform="matrix(1 0 0 1 1952.36 5158)">Gender</text></g><g clip-path="url(#clip16)"><text font-family="Arial,Arial_MSFontService,sans-serif" font-weight="700" font-size="147" transform="matrix(1 0 0 1 2506.55 5158)">and Ethnicity Differences in Concentration</text></g><g clip-path="url(#clip17)"><text fill="#E36C33" font-family="Arial,Arial_MSFontService,sans-serif" font-weight="400" font-size="73" transform="matrix(1 0 0 1 2245.61 5575)">Almost every day     </text></g><g clip-path="url(#clip18)"><text fill="#595959" font-family="Arial,Arial_MSFontService,sans-serif" font-weight="400" font-size="73" transform="matrix(1 0 0 1 2909.94 5575)">|  </text></g><g clip-path="url(#clip19)"><text fill="#DEA482" font-family="Arial,Arial_MSFontService,sans-serif" font-weight="400" font-size="73" transform="matrix(1 0 0 1 3010.48 5575)">About once a week</text></g><g clip-path="url(#clip20)"><text fill="#595959" font-family="Arial,Arial_MSFontService,sans-serif" font-weight="400" font-size="73" transform="matrix(1 0 0 1 3736.16 5575)">|     </text></g><g clip-path="url(#clip21)"><text fill="#839CB2" font-family="Arial,Arial_MSFontService,sans-serif" font-weight="400" font-size="73" transform="matrix(1 0 0 1 3857.06 5575)">About once a month     </text></g><g clip-path="url(#clip22)"><text fill="#595959" font-family="Arial,Arial_MSFontService,sans-serif" font-weight="400" font-size="73" transform="matrix(1 0 0 1 4615.38 5575)">|  </text></g><g clip-path="url(#clip23)"><text fill="#3E6487" font-family="Arial,Arial_MSFontService,sans-serif" font-weight="400" font-size="73" transform="matrix(1 0 0 1 4736.28 5575)">Never</text></g><g clip-path="url(#clip24)"><path d="M5855.19 7090.23 5767 7090.23 5767 6886.23 5855.19 6886.23ZM5811.19 6785.22 5767 6785.22 5767 6581.22 5811.19 6581.22ZM5848.19 6174.2 5767 6174.2 5767 5971.2 5848.19 5971.2ZM5855.19 5869.19 5767 5869.19 5767 5666.19 5855.19 5666.19Z" fill="#3E6487"/></g><g clip-path="url(#clip25)"><path d="M0 0 0.000360892 1526" stroke="#D9D9D9" stroke-width="3.4375" stroke-linejoin="round" stroke-miterlimit="10" fill="none" fill-rule="evenodd" transform="matrix(1 0 0 -1 5767.5 7140.5)"/></g><g clip-path="url(#clip26)"><path d="M5745.5 7140.5 5767.5 7140.5M5745.5 6835.72 5767.5 6835.72M5745.5 6530.71 5767.5 6530.71M5745.5 6225.7 5767.5 6225.7M5745.5 5919.69 5767.5 5919.69M5745.5 5614.5 5767.5 5614.5" stroke="#D9D9D9" stroke-width="3.4375" stroke-linejoin="round" stroke-miterlimit="10" fill="none"/></g><g clip-path="url(#clip27)"><g clip-path="url(#clip28)"><text fill="#404040" font-family="Arial,Arial_MSFontService,sans-serif" font-weight="700" font-size="73" transform="matrix(1 0 0 1 5882.66 7015)">12%</text></g></g><g clip-path="url(#clip29)"><g clip-path="url(#clip30)"><text fill="#404040" font-family="Arial,Arial_MSFontService,sans-serif" font-weight="700" font-size="73" transform="matrix(1 0 0 1 5838.8 6710)">6%</text></g></g><g clip-path="url(#clip31)"><g clip-path="url(#clip32)"><text fill="#404040" font-family="Arial,Arial_MSFontService,sans-serif" font-weight="700" font-size="73" transform="matrix(1 0 0 1 5875.35 6100)">11%</text></g></g><g clip-path="url(#clip33)"><g clip-path="url(#clip34)"><text fill="#404040" font-family="Arial,Arial_MSFontService,sans-serif" font-weight="700" font-size="73" transform="matrix(1 0 0 1 5882.66 5794)">12%</text></g></g><g clip-path="url(#clip35)"><text fill="#595959" font-family="Arial,Arial_MSFontService,sans-serif" font-weight="700" font-size="73" transform="matrix(1 0 0 1 5398.66 7011)">Hispanic</text></g><g clip-path="url(#clip36)"><text fill="#595959" font-family="Arial,Arial_MSFontService,sans-serif" font-weight="700" font-size="73" transform="matrix(1 0 0 1 5231.67 6706)">Non-Hispanic</text></g><g clip-path="url(#clip37)"><text fill="#595959" font-family="Arial,Arial_MSFontService,sans-serif" font-weight="700" font-size="73" transform="matrix(1 0 0 1 5451.6 6096)">Female</text></g><g clip-path="url(#clip38)"><text fill="#595959" font-family="Arial,Arial_MSFontService,sans-serif" font-weight="700" font-size="73" transform="matrix(1 0 0 1 5541.3 5790)">Male</text></g><g clip-path="url(#clip39)"><path d="M1488.05 7121.23 1708.06 7121.23 1708.06 6908.23 1488.05 6908.23ZM1349.04 6801.22 1708.06 6801.22 1708.06 6588.22 1349.04 6588.22ZM1474.05 6161.2 1708.06 6161.2 1708.06 5948.2 1474.05 5948.2ZM1474.05 5841.19 1708.06 5841.19 1708.06 5628.18 1474.05 5628.18Z" fill="#E36C33"/></g><g clip-path="url(#clip40)"><path d="M0 0 0.000360892 1601" stroke="#D9D9D9" stroke-width="3.4375" stroke-linejoin="round" stroke-miterlimit="10" fill="none" fill-rule="evenodd" transform="matrix(1 0 0 -1 1708.5 7175.5)"/></g><g clip-path="url(#clip41)"><path d="M1708.5 7175.5 1730.5 7175.5M1708.5 6854.73 1730.5 6854.73M1708.5 6534.71 1730.5 6534.71M1708.5 6214.7 1730.5 6214.7M1708.5 5894.69 1730.5 5894.69M1708.5 5574.5 1730.5 5574.5" stroke="#D9D9D9" stroke-width="3.4375" stroke-linejoin="round" stroke-miterlimit="10" fill="none"/></g><g clip-path="url(#clip42)"><text fill="#404040" font-family="Arial,Arial_MSFontService,sans-serif" font-weight="700" font-size="73" transform="matrix(1 0 0 1 1314.08 7042)">30%</text></g><g clip-path="url(#clip43)"><text fill="#404040" font-family="Arial,Arial_MSFontService,sans-serif" font-weight="700" font-size="73" transform="matrix(1 0 0 1 1174.89 6722)">49%</text></g><g clip-path="url(#clip44)"><text fill="#404040" font-family="Arial,Arial_MSFontService,sans-serif" font-weight="700" font-size="73" transform="matrix(1 0 0 1 1299.42 6082)">32%</text></g><g clip-path="url(#clip45)"><text fill="#404040" font-family="Arial,Arial_MSFontService,sans-serif" font-weight="700" font-size="73" transform="matrix(1 0 0 1 1299.42 5762)">32%</text></g><g clip-path="url(#clip46)"><text fill="#595959" font-family="Arial,Arial_MSFontService,sans-serif" font-weight="700" font-size="73" transform="matrix(1 0 0 1 1771.22 7038)">Hispanic</text></g><g clip-path="url(#clip47)"><text fill="#595959" font-family="Arial,Arial_MSFontService,sans-serif" font-weight="700" font-size="73" transform="matrix(1 0 0 1 1771.22 6718)">Non-Hispanic</text></g><g clip-path="url(#clip48)"><text fill="#595959" font-family="Arial,Arial_MSFontService,sans-serif" font-weight="700" font-size="73" transform="matrix(1 0 0 1 1771.22 6078)">Female</text></g><g clip-path="url(#clip49)"><text fill="#595959" font-family="Arial,Arial_MSFontService,sans-serif" font-weight="700" font-size="73" transform="matrix(1 0 0 1 1771.22 5758)">Male</text></g><rect x="3180" y="7213" width="16.9998" height="46" fill="#FFFFFF"/><rect x="2669" y="7214" width="16.0002" height="46" fill="#FFFFFF"/><rect x="2168" y="7204" width="15.9998" height="46" fill="#FFFFFF"/></g></svg>