<svg width="5674" height="2454" xmlns="http://www.w3.org/2000/svg" xmlns:xlink="http://www.w3.org/1999/xlink" xml:space="preserve" overflow="hidden"><defs><clipPath id="clip0"><rect x="1212" y="8986" width="5674" height="2454"/></clipPath><clipPath id="clip1"><rect x="6026" y="9725" width="738" height="1463"/></clipPath><clipPath id="clip2"><rect x="5483" y="9681" width="1281" height="1547"/></clipPath><clipPath id="clip3"><rect x="5483" y="9681" width="1281" height="1547"/></clipPath><clipPath id="clip4"><rect x="5483" y="9681" width="1281" height="1547"/></clipPath><clipPath id="clip5"><rect x="5483" y="9681" width="1281" height="1547"/></clipPath><clipPath id="clip6"><rect x="5483" y="9681" width="1281" height="1547"/></clipPath><clipPath id="clip7"><rect x="5483" y="9681" width="1281" height="1547"/></clipPath><clipPath id="clip8"><rect x="5483" y="9681" width="1281" height="1547"/></clipPath><clipPath id="clip9"><rect x="5483" y="9681" width="1281" height="1547"/></clipPath><clipPath id="clip10"><rect x="5483" y="9681" width="1281" height="1547"/></clipPath><clipPath id="clip11"><rect x="5483" y="9681" width="1281" height="1547"/></clipPath><clipPath id="clip12"><rect x="2501" y="9679" width="3065" height="1547"/></clipPath><clipPath id="clip13"><rect x="2501" y="9679" width="3065" height="1547"/></clipPath><clipPath id="clip14"><rect x="2501" y="9679" width="3065" height="1547"/></clipPath><clipPath id="clip15"><rect x="2501" y="9679" width="3065" height="1547"/></clipPath><clipPath id="clip16"><rect x="2394" y="9629" width="3267" height="1706"/></clipPath><clipPath id="clip17"><rect x="2394" y="9629" width="3267" height="1706"/></clipPath><clipPath id="clip18"><rect x="2394" y="9629" width="3267" height="1706"/></clipPath><clipPath id="clip19"><rect x="2394" y="9629" width="3267" height="1706"/></clipPath><clipPath id="clip20"><rect x="2394" y="9629" width="3267" height="1706"/></clipPath><clipPath id="clip21"><rect x="2394" y="9629" width="3267" height="1706"/></clipPath><clipPath id="clip22"><rect x="2394" y="9629" width="3267" height="1706"/></clipPath><clipPath id="clip23"><rect x="2394" y="9629" width="3267" height="1706"/></clipPath><clipPath id="clip24"><rect x="2606" y="9545" width="2843" height="95"/></clipPath><clipPath id="clip25"><rect x="2606" y="9545" width="2843" height="95"/></clipPath><clipPath id="clip26"><rect x="2606" y="9545" width="2843" height="95"/></clipPath><clipPath id="clip27"><rect x="2606" y="9545" width="2843" height="95"/></clipPath><clipPath id="clip28"><rect x="2606" y="9545" width="2843" height="95"/></clipPath><clipPath id="clip29"><rect x="2191" y="9321" width="3638" height="227"/></clipPath><clipPath id="clip30"><rect x="2191" y="9321" width="3638" height="227"/></clipPath><clipPath id="clip31"><rect x="2191" y="9321" width="3638" height="227"/></clipPath><clipPath id="clip32"><rect x="2191" y="9321" width="3638" height="227"/></clipPath><clipPath id="clip33"><rect x="1984" y="8986" width="4098" height="371"/></clipPath><clipPath id="clip34"><rect x="1325" y="9679" width="745" height="1553"/></clipPath><clipPath id="clip35"><rect x="1325" y="9632" width="1285" height="1644"/></clipPath><clipPath id="clip36"><rect x="1325" y="9632" width="1285" height="1644"/></clipPath><clipPath id="clip37"><rect x="1325" y="9632" width="1285" height="1644"/></clipPath><clipPath id="clip38"><rect x="1325" y="9632" width="1285" height="1644"/></clipPath><clipPath id="clip39"><rect x="1325" y="9632" width="1285" height="1644"/></clipPath><clipPath id="clip40"><rect x="1325" y="9632" width="1285" height="1644"/></clipPath><clipPath id="clip41"><rect x="1325" y="9632" width="1285" height="1644"/></clipPath><clipPath id="clip42"><rect x="1325" y="9632" width="1285" height="1644"/></clipPath><clipPath id="clip43"><rect x="1325" y="9632" width="1285" height="1644"/></clipPath><clipPath id="clip44"><rect x="1325" y="9632" width="1285" height="1644"/></clipPath></defs><g clip-path="url(#clip0)" transform="translate(-1212 -8986)"><rect x="1212" y="8999" width="5674" height="2441" fill="#FFFFFF"/><g clip-path="url(#clip1)"><path d="M6270.21 11136.4 6026 11136.4 6026 10941.4 6270.21 10941.4ZM6240.2 10844.4 6026 10844.4 6026 10649.3 6240.2 10649.3ZM6270.21 10260.3 6026 10260.3 6026 10066.3 6270.21 10066.3ZM6270.21 9968.33 6026 9968.33 6026 9774.32 6270.21 9774.32Z" fill="#839CB2"/></g><g clip-path="url(#clip2)"><path d="M0 0 0.000360892 1459" stroke="#D9D9D9" stroke-width="3.4375" stroke-linejoin="round" stroke-miterlimit="10" fill="none" fill-rule="evenodd" transform="matrix(1 0 0 -1 6026.5 11184.5)"/></g><g clip-path="url(#clip3)"><path d="M6004.5 11184.5 6026.5 11184.5M6004.5 10892.9 6026.5 10892.9M6004.5 10600.8 6026.5 10600.8M6004.5 10308.8 6026.5 10308.8M6004.5 10017.8 6026.5 10017.8M6004.5 9725.5 6026.5 9725.5" stroke="#D9D9D9" stroke-width="3.4375" stroke-linejoin="round" stroke-miterlimit="10" fill="none"/></g><g clip-path="url(#clip4)"><text fill="#404040" font-family="Arial,Arial_MSFontService,sans-serif" font-weight="700" font-size="64" transform="matrix(1 0 0 1 6114.05 11062)">33%</text></g><g clip-path="url(#clip5)"><text fill="#404040" font-family="Arial,Arial_MSFontService,sans-serif" font-weight="700" font-size="64" transform="matrix(1 0 0 1 6084.5 10770)">29%</text></g><g clip-path="url(#clip6)"><text fill="#404040" font-family="Arial,Arial_MSFontService,sans-serif" font-weight="700" font-size="64" transform="matrix(1 0 0 1 6114.05 10186)">33%</text></g><g clip-path="url(#clip7)"><text fill="#404040" font-family="Arial,Arial_MSFontService,sans-serif" font-weight="700" font-size="64" transform="matrix(1 0 0 1 6114.05 9895)">33%</text></g><g clip-path="url(#clip8)"><text fill="#595959" font-family="Arial,Arial_MSFontService,sans-serif" font-weight="700" font-size="73" transform="matrix(1 0 0 1 5657.42 11062)">Hispanic</text></g><g clip-path="url(#clip9)"><text fill="#595959" font-family="Arial,Arial_MSFontService,sans-serif" font-weight="700" font-size="73" transform="matrix(1 0 0 1 5490.42 10770)">Non-Hispanic</text></g><g clip-path="url(#clip10)"><text fill="#595959" font-family="Arial,Arial_MSFontService,sans-serif" font-weight="700" font-size="73" transform="matrix(1 0 0 1 5710.35 10186)">Female</text></g><g clip-path="url(#clip11)"><text fill="#595959" font-family="Arial,Arial_MSFontService,sans-serif" font-weight="700" font-size="73" transform="matrix(1 0 0 1 5800.05 9894)">Male</text></g><g clip-path="url(#clip12)"><path d="M3593.62 11171.9 4031.63 11171.9 4031.63 10965.9 3593.62 10965.9ZM3531.62 10862.9 4031.63 10862.9 4031.63 10656.8 3531.62 10656.8ZM3603.62 10245.8 4031.63 10245.8 4031.63 10039.8 3603.62 10039.8ZM3552.62 9936.83 4031.63 9936.83 4031.63 9730.82 3552.62 9730.82Z" stroke="#FFFFFF" stroke-width="3.4375" stroke-linejoin="round" stroke-miterlimit="10" fill="#C7CDD1"/></g><g clip-path="url(#clip13)"><path d="M3103.6 11171.9 3593.62 11171.9 3593.62 10965.9 3103.6 10965.9ZM3082.6 10862.9 3531.62 10862.9 3531.62 10656.8 3082.6 10656.8ZM3093.6 10245.8 3603.62 10245.8 3603.62 10039.8 3093.6 10039.8ZM3144.6 9936.83 3552.62 9936.83 3552.62 9730.82 3144.6 9730.82Z" stroke="#FFFFFF" stroke-width="3.4375" stroke-linejoin="round" stroke-miterlimit="10" fill="#EDAD88"/></g><g clip-path="url(#clip14)"><path d="M4470.65 11171.9 4031.63 11171.9 4031.63 10965.9 4470.65 10965.9ZM4532.65 10862.9 4031.63 10862.9 4031.63 10656.8 4532.65 10656.8ZM4460.65 10245.8 4031.63 10245.8 4031.63 10039.8 4460.65 10039.8ZM4511.65 9936.83 4031.63 9936.83 4031.63 9730.82 4511.65 9730.82Z" stroke="#FFFFFF" stroke-width="3.4375" stroke-linejoin="round" stroke-miterlimit="10" fill="#C7CDD1"/></g><g clip-path="url(#clip15)"><path d="M5144.67 11171.9 4470.65 11171.9 4470.65 10965.9 5144.67 10965.9ZM5124.67 10862.9 4532.65 10862.9 4532.65 10656.8 5124.67 10656.8ZM5134.67 10245.8 4460.65 10245.8 4460.65 10039.8 5134.67 10039.8ZM5185.67 9936.83 4511.65 9936.83 4511.65 9730.82 5185.67 9730.82Z" stroke="#FFFFFF" stroke-width="3.4375" stroke-linejoin="round" stroke-miterlimit="10" fill="#839CB2"/></g><g clip-path="url(#clip16)"><path d="M0 0 0.000360892 1543" stroke="#D9D9D9" stroke-width="3.4375" stroke-linejoin="round" stroke-miterlimit="10" fill="none" fill-rule="evenodd" transform="matrix(1 0 0 -1 4032.5 11222.5)"/></g><g clip-path="url(#clip17)"><text fill="#A6A6A6" font-family="Arial,Arial_MSFontService,sans-serif" font-weight="400" font-size="48" transform="matrix(1 0 0 1 2444.95 11296)">-75%</text></g><g clip-path="url(#clip18)"><text fill="#A6A6A6" font-family="Arial,Arial_MSFontService,sans-serif" font-weight="400" font-size="48" transform="matrix(1 0 0 1 2955.29 11296)">-50%</text></g><g clip-path="url(#clip19)"><text fill="#A6A6A6" font-family="Arial,Arial_MSFontService,sans-serif" font-weight="400" font-size="48" transform="matrix(1 0 0 1 3465.62 11296)">-25%</text></g><g clip-path="url(#clip20)"><text fill="#A6A6A6" font-family="Arial,Arial_MSFontService,sans-serif" font-weight="400" font-size="48" transform="matrix(1 0 0 1 3997.35 11296)">0%</text></g><g clip-path="url(#clip21)"><text fill="#A6A6A6" font-family="Arial,Arial_MSFontService,sans-serif" font-weight="400" font-size="48" transform="matrix(1 0 0 1 4494.31 11296)">25%</text></g><g clip-path="url(#clip22)"><text fill="#A6A6A6" font-family="Arial,Arial_MSFontService,sans-serif" font-weight="400" font-size="48" transform="matrix(1 0 0 1 5004.64 11296)">50%</text></g><g clip-path="url(#clip23)"><text fill="#A6A6A6" font-family="Arial,Arial_MSFontService,sans-serif" font-weight="400" font-size="48" transform="matrix(1 0 0 1 5514.98 11296)">75%</text></g><g clip-path="url(#clip24)"><text fill="#DEA482" font-family="Arial,Arial_MSFontService,sans-serif" font-weight="400" font-size="73" transform="matrix(1 0 0 1 3545.77 9619)">Often</text></g><g clip-path="url(#clip25)"><text fill="#595959" font-family="Arial,Arial_MSFontService,sans-serif" font-weight="400" font-size="73" transform="matrix(1 0 0 1 3765.88 9619)">|   </text></g><g clip-path="url(#clip26)"><text fill="#A6A6A6" font-family="Arial,Arial_MSFontService,sans-serif" font-weight="400" font-size="73" transform="matrix(1 0 0 1 3846.05 9619)">Sometimes </text></g><g clip-path="url(#clip27)"><text fill="#595959" font-family="Arial,Arial_MSFontService,sans-serif" font-weight="400" font-size="73" transform="matrix(1 0 0 1 4233.22 9619)">|  </text></g><g clip-path="url(#clip28)"><text fill="#839CB2" font-family="Arial,Arial_MSFontService,sans-serif" font-weight="400" font-size="73" transform="matrix(1 0 0 1 4313.39 9619)">Never  </text></g><g clip-path="url(#clip29)"><text font-family="Arial,Arial_MSFontService,sans-serif" font-weight="400" font-size="73" transform="matrix(1 0 0 1 2224.35 9419)">Replies</text></g><text font-family="Arial,Arial_MSFontService,sans-serif" font-weight="400" font-size="73" transform="matrix(1 0 0 1 2489.32 9419)">to the question, </text><text font-family="Arial,Arial_MSFontService,sans-serif" font-style="italic" font-weight="400" font-size="73" transform="matrix(1 0 0 1 3011.22 9419)">How often do you think about delaying completion of degree because of lack of </text><g clip-path="url(#clip30)"><text font-family="Arial,Arial_MSFontService,sans-serif" font-style="italic" font-weight="400" font-size="73" transform="matrix(1 0 0 1 2224.35 9503)">money for food etc?</text></g><g clip-path="url(#clip31)"><text font-family="Arial,Arial_MSFontService,sans-serif" font-style="italic" font-weight="400" font-size="73" transform="matrix(1 0 0 1 2872.58 9503)">, </text></g><g clip-path="url(#clip32)"><text font-family="Arial,Arial_MSFontService,sans-serif" font-weight="400" font-size="73" transform="matrix(1 0 0 1 2913.32 9503)">survey applied to UTEP students in 2022.</text></g><text font-family="Arial,Arial_MSFontService,sans-serif" font-weight="700" font-size="128" transform="matrix(1 0 0 1 2171.86 9144)">Gender and Ethnicity Differences in Thinking About Delaying </text><g clip-path="url(#clip33)"><text font-family="Arial,Arial_MSFontService,sans-serif" font-weight="700" font-size="128" transform="matrix(1 0 0 1 3387.59 9292)">Degree Completation</text></g><g clip-path="url(#clip34)"><path d="M1889.06 11177.4 2067.07 11177.4 2067.07 10971.4 1889.06 10971.4ZM1904.06 10867.4 2067.07 10867.4 2067.07 10661.3 1904.06 10661.3ZM1882.06 10247.3 2067.07 10247.3 2067.07 10041.3 1882.06 10041.3ZM1919.06 9937.33 2067.07 9937.33 2067.07 9731.32 1919.06 9731.32Z" fill="#EDAD88"/></g><g clip-path="url(#clip35)"><path d="M0 0 0.000360892 1550" stroke="#D9D9D9" stroke-width="3.4375" stroke-linejoin="round" stroke-miterlimit="10" fill="none" fill-rule="evenodd" transform="matrix(1 0 0 -1 2067.5 11229.5)"/></g><g clip-path="url(#clip36)"><path d="M2067.5 11229.5 2089.5 11229.5M2067.5 10919.9 2089.5 10919.9M2067.5 10609.8 2089.5 10609.8M2067.5 10299.8 2089.5 10299.8M2067.5 9989.83 2089.5 9989.83M2067.5 9679.5 2089.5 9679.5" stroke="#D9D9D9" stroke-width="3.4375" stroke-linejoin="round" stroke-miterlimit="10" fill="none"/></g><g clip-path="url(#clip37)"><text fill="#404040" font-family="Arial,Arial_MSFontService,sans-serif" font-weight="700" font-size="64" transform="matrix(1 0 0 1 1911.48 11097)">24%</text></g><g clip-path="url(#clip38)"><text fill="#404040" font-family="Arial,Arial_MSFontService,sans-serif" font-weight="700" font-size="64" transform="matrix(1 0 0 1 1911.48 10787)">22%</text></g><g clip-path="url(#clip39)"><text fill="#404040" font-family="Arial,Arial_MSFontService,sans-serif" font-weight="700" font-size="64" transform="matrix(1 0 0 1 1909.53 10167)">25%</text></g><g clip-path="url(#clip40)"><text fill="#404040" font-family="Arial,Arial_MSFontService,sans-serif" font-weight="700" font-size="64" transform="matrix(1 0 0 1 1920.47 9858)">20%</text></g><g clip-path="url(#clip41)"><text fill="#595959" font-family="Arial,Arial_MSFontService,sans-serif" font-weight="700" font-size="73" transform="matrix(1 0 0 1 2130.5 11097)">Hispanic</text></g><g clip-path="url(#clip42)"><text fill="#595959" font-family="Arial,Arial_MSFontService,sans-serif" font-weight="700" font-size="73" transform="matrix(1 0 0 1 2130.5 10787)">Non-Hispanic</text></g><g clip-path="url(#clip43)"><text fill="#595959" font-family="Arial,Arial_MSFontService,sans-serif" font-weight="700" font-size="73" transform="matrix(1 0 0 1 2130.5 10167)">Female</text></g><g clip-path="url(#clip44)"><text fill="#595959" font-family="Arial,Arial_MSFontService,sans-serif" font-weight="700" font-size="73" transform="matrix(1 0 0 1 2130.5 9857)">Male</text></g><rect x="2437" y="11273" width="25" height="41" fill="#FFFFFF"/><rect x="2948" y="11261" width="25" height="39" fill="#FFFFFF"/><rect x="3457" y="11268" width="25.9998" height="42" fill="#FFFFFF"/></g></svg>