<svg width="5611" height="2568" xmlns="http://www.w3.org/2000/svg" xmlns:xlink="http://www.w3.org/1999/xlink" xml:space="preserve" overflow="hidden"><defs><clipPath id="clip0"><rect x="1217" y="9172" width="5611" height="2568"/></clipPath><clipPath id="clip1"><rect x="6001" y="9999" width="738" height="1506"/></clipPath><clipPath id="clip2"><rect x="5458" y="9954" width="1281" height="1593"/></clipPath><clipPath id="clip3"><rect x="5458" y="9954" width="1281" height="1593"/></clipPath><clipPath id="clip4"><rect x="5458" y="9954" width="1281" height="1593"/></clipPath><clipPath id="clip5"><rect x="5458" y="9954" width="1281" height="1593"/></clipPath><clipPath id="clip6"><rect x="5458" y="9954" width="1281" height="1593"/></clipPath><clipPath id="clip7"><rect x="5458" y="9954" width="1281" height="1593"/></clipPath><clipPath id="clip8"><rect x="5458" y="9954" width="1281" height="1593"/></clipPath><clipPath id="clip9"><rect x="5458" y="9954" width="1281" height="1593"/></clipPath><clipPath id="clip10"><rect x="5458" y="9954" width="1281" height="1593"/></clipPath><clipPath id="clip11"><rect x="5458" y="9954" width="1281" height="1593"/></clipPath><clipPath id="clip12"><rect x="2497" y="9950" width="3021" height="1584"/></clipPath><clipPath id="clip13"><rect x="2497" y="9950" width="3021" height="1584"/></clipPath><clipPath id="clip14"><rect x="2497" y="9950" width="3021" height="1584"/></clipPath><clipPath id="clip15"><rect x="2497" y="9950" width="3021" height="1584"/></clipPath><clipPath id="clip16"><rect x="2382" y="9900" width="3254" height="1755"/></clipPath><clipPath id="clip17"><rect x="2382" y="9900" width="3254" height="1755"/></clipPath><clipPath id="clip18"><rect x="2382" y="9900" width="3254" height="1755"/></clipPath><clipPath id="clip19"><rect x="2382" y="9900" width="3254" height="1755"/></clipPath><clipPath id="clip20"><rect x="2382" y="9900" width="3254" height="1755"/></clipPath><clipPath id="clip21"><rect x="2382" y="9900" width="3254" height="1755"/></clipPath><clipPath id="clip22"><rect x="2382" y="9900" width="3254" height="1755"/></clipPath><clipPath id="clip23"><rect x="2382" y="9900" width="3254" height="1755"/></clipPath><clipPath id="clip24"><rect x="1711" y="9835" width="2827" height="98"/></clipPath><clipPath id="clip25"><rect x="1711" y="9835" width="2827" height="98"/></clipPath><clipPath id="clip26"><rect x="1711" y="9835" width="2827" height="98"/></clipPath><clipPath id="clip27"><rect x="1711" y="9835" width="2827" height="98"/></clipPath><clipPath id="clip28"><rect x="1711" y="9835" width="2827" height="98"/></clipPath><clipPath id="clip29"><rect x="2195" y="9574" width="3657" height="266"/></clipPath><clipPath id="clip30"><rect x="2195" y="9574" width="3657" height="266"/></clipPath><clipPath id="clip31"><rect x="2195" y="9574" width="3657" height="266"/></clipPath><clipPath id="clip32"><rect x="2195" y="9574" width="3657" height="266"/></clipPath><clipPath id="clip33"><rect x="2200" y="9229" width="3660" height="400"/></clipPath><clipPath id="clip34"><rect x="1317" y="9951" width="740" height="1600"/></clipPath><clipPath id="clip35"><rect x="1317" y="9903" width="1279" height="1693"/></clipPath><clipPath id="clip36"><rect x="1317" y="9903" width="1279" height="1693"/></clipPath><clipPath id="clip37"><rect x="1317" y="9903" width="1279" height="1693"/></clipPath><clipPath id="clip38"><rect x="1317" y="9903" width="1279" height="1693"/></clipPath><clipPath id="clip39"><rect x="1317" y="9903" width="1279" height="1693"/></clipPath><clipPath id="clip40"><rect x="1317" y="9903" width="1279" height="1693"/></clipPath><clipPath id="clip41"><rect x="1317" y="9903" width="1279" height="1693"/></clipPath><clipPath id="clip42"><rect x="1317" y="9903" width="1279" height="1693"/></clipPath><clipPath id="clip43"><rect x="1317" y="9903" width="1279" height="1693"/></clipPath><clipPath id="clip44"><rect x="1317" y="9903" width="1279" height="1693"/></clipPath></defs><g clip-path="url(#clip0)" transform="translate(-1217 -9172)"><rect x="1217" y="9172" width="5611" height="2568" fill="#FFFFFF"/><g clip-path="url(#clip1)"><path d="M6481.21 11452.4 6002 11452.4 6002 11251.4 6481.21 11251.4ZM6614.22 11151.4 6002 11151.4 6002 10951.4 6614.22 10951.4ZM6474.21 10550.3 6002 10550.3 6002 10350.3 6474.21 10350.3ZM6533.21 10250.3 6002 10250.3 6002 10050.3 6533.21 10050.3Z" fill="#839CB2"/></g><g clip-path="url(#clip2)"><path d="M0 0 0.000360892 1503" stroke="#D9D9D9" stroke-width="3.4375" stroke-linejoin="round" stroke-miterlimit="10" fill="none" fill-rule="evenodd" transform="matrix(1 0 0 -1 6001.5 11502.5)"/></g><g clip-path="url(#clip3)"><path d="M5979.5 11502.5 6001.5 11502.5M5979.5 11201.9 6001.5 11201.9M5979.5 10900.9 6001.5 10900.9M5979.5 10600.8 6001.5 10600.8M5979.5 10299.8 6001.5 10299.8M5979.5 9999.5 6001.5 9999.5" stroke="#D9D9D9" stroke-width="3.4375" stroke-linejoin="round" stroke-miterlimit="10" fill="none"/></g><g clip-path="url(#clip4)"><text fill="#404040" font-family="Arial,Arial_MSFontService,sans-serif" font-weight="700" font-size="64" transform="matrix(1 0 0 1 6509.03 11375)">65%</text></g><g clip-path="url(#clip5)"><text fill="#404040" font-family="Arial,Arial_MSFontService,sans-serif" font-weight="700" font-size="64" transform="matrix(1 0 0 1 6597.79 11075)">83%</text></g><g clip-path="url(#clip6)"><text fill="#404040" font-family="Arial,Arial_MSFontService,sans-serif" font-weight="700" font-size="64" transform="matrix(1 0 0 1 6501.64 10474)">64%</text></g><g clip-path="url(#clip7)"><text fill="#404040" font-family="Arial,Arial_MSFontService,sans-serif" font-weight="700" font-size="64" transform="matrix(1 0 0 1 6560.71 10173)">72%</text></g><g clip-path="url(#clip8)"><text fill="#595959" font-family="Arial,Arial_MSFontService,sans-serif" font-weight="700" font-size="73" transform="matrix(1 0 0 1 5632.8 11375)">Hispanic</text></g><g clip-path="url(#clip9)"><text fill="#595959" font-family="Arial,Arial_MSFontService,sans-serif" font-weight="700" font-size="73" transform="matrix(1 0 0 1 5465.8 11074)">Non-Hispanic</text></g><g clip-path="url(#clip10)"><text fill="#595959" font-family="Arial,Arial_MSFontService,sans-serif" font-weight="700" font-size="73" transform="matrix(1 0 0 1 5685.73 10473)">Female</text></g><g clip-path="url(#clip11)"><text fill="#595959" font-family="Arial,Arial_MSFontService,sans-serif" font-weight="700" font-size="73" transform="matrix(1 0 0 1 5775.43 10173)">Male</text></g><g clip-path="url(#clip12)"><path d="M3352.61 11478.9 3503.61 11478.9 3503.61 11267.9 3352.61 11267.9ZM3453.61 11162.9 3503.61 11162.9 3503.61 10951.9 3453.61 10951.9ZM3362.61 10530.8 3503.61 10530.8 3503.61 10319.8 3362.61 10319.8ZM3362.61 10213.8 3503.61 10213.8 3503.61 10003.8 3362.61 10003.8Z" stroke="#FFFFFF" stroke-width="3.4375" stroke-linejoin="round" stroke-miterlimit="10" fill="#C7CDD1"/></g><g clip-path="url(#clip13)"><path d="M2950.6 11478.9 3352.61 11478.9 3352.61 11267.9 2950.6 11267.9ZM3211.61 11162.9 3453.61 11162.9 3453.61 10951.9 3211.61 10951.9ZM2919.6 10530.8 3362.61 10530.8 3362.61 10319.8 2919.6 10319.8ZM3101.6 10213.8 3362.61 10213.8 3362.61 10003.8 3101.6 10003.8Z" stroke="#FFFFFF" stroke-width="3.4375" stroke-linejoin="round" stroke-miterlimit="10" fill="#EDAD88"/></g><g clip-path="url(#clip14)"><path d="M3654.62 11478.9 3503.61 11478.9 3503.61 11267.9 3654.62 11267.9ZM3553.62 11162.9 3503.61 11162.9 3503.61 10951.9 3553.62 10951.9ZM3644.62 10530.8 3503.61 10530.8 3503.61 10319.8 3644.62 10319.8ZM3644.62 10213.8 3503.61 10213.8 3503.61 10003.8 3644.62 10003.8Z" stroke="#FFFFFF" stroke-width="3.4375" stroke-linejoin="round" stroke-miterlimit="10" fill="#C7CDD1"/></g><g clip-path="url(#clip15)"><path d="M4962.66 11478.9 3654.62 11478.9 3654.62 11267.9 4962.66 11267.9ZM5223.67 11162.9 3553.62 11162.9 3553.62 10951.9 5223.67 10951.9ZM4931.66 10530.8 3644.62 10530.8 3644.62 10319.8 4931.66 10319.8ZM5092.67 10213.8 3644.62 10213.8 3644.62 10003.8 5092.67 10003.8Z" stroke="#FFFFFF" stroke-width="3.4375" stroke-linejoin="round" stroke-miterlimit="10" fill="#839CB2"/></g><g clip-path="url(#clip16)"><path d="M0 0 0.000360892 1581" stroke="#D9D9D9" stroke-width="3.4375" stroke-linejoin="round" stroke-miterlimit="10" fill="none" fill-rule="evenodd" transform="matrix(1 0 0 -1 3503.5 11531.5)"/></g><g clip-path="url(#clip17)"><text fill="#A6A6A6" font-family="Arial,Arial_MSFontService,sans-serif" font-weight="400" font-size="55" transform="matrix(1 0 0 1 2433.31 11615)">-50%</text></g><g clip-path="url(#clip18)"><text fill="#A6A6A6" font-family="Arial,Arial_MSFontService,sans-serif" font-weight="400" font-size="55" transform="matrix(1 0 0 1 2936.31 11615)">-25%</text></g><g clip-path="url(#clip19)"><text fill="#A6A6A6" font-family="Arial,Arial_MSFontService,sans-serif" font-weight="400" font-size="55" transform="matrix(1 0 0 1 3463.76 11615)">0%</text></g><g clip-path="url(#clip20)"><text fill="#A6A6A6" font-family="Arial,Arial_MSFontService,sans-serif" font-weight="400" font-size="55" transform="matrix(1 0 0 1 3951.46 11615)">25%</text></g><g clip-path="url(#clip21)"><text fill="#A6A6A6" font-family="Arial,Arial_MSFontService,sans-serif" font-weight="400" font-size="55" transform="matrix(1 0 0 1 4454.45 11615)">50%</text></g><g clip-path="url(#clip22)"><text fill="#A6A6A6" font-family="Arial,Arial_MSFontService,sans-serif" font-weight="400" font-size="55" transform="matrix(1 0 0 1 4957.45 11615)">75%</text></g><g clip-path="url(#clip23)"><text fill="#A6A6A6" font-family="Arial,Arial_MSFontService,sans-serif" font-weight="400" font-size="55" transform="matrix(1 0 0 1 5445.15 11615)">100%</text></g><g clip-path="url(#clip24)"><text fill="#DEA482" font-family="Arial,Arial_MSFontService,sans-serif" font-weight="400" font-size="73" transform="matrix(1 0 0 1 2204.76 9911)">Yes, by 2 semesters or more</text></g><g clip-path="url(#clip25)"><text fill="#595959" font-family="Arial,Arial_MSFontService,sans-serif" font-weight="400" font-size="73" transform="matrix(1 0 0 1 3182.95 9911)">| </text></g><g clip-path="url(#clip26)"><text fill="#A6A6A6" font-family="Arial,Arial_MSFontService,sans-serif" font-weight="400" font-size="73" transform="matrix(1 0 0 1 3222.37 9911)">Yes, by 1 semester </text></g><g clip-path="url(#clip27)"><text fill="#595959" font-family="Arial,Arial_MSFontService,sans-serif" font-weight="400" font-size="73" transform="matrix(1 0 0 1 3870.45 9911)">|  </text></g><g clip-path="url(#clip28)"><text fill="#839CB2" font-family="Arial,Arial_MSFontService,sans-serif" font-weight="400" font-size="73" transform="matrix(1 0 0 1 3950.62 9911)">No </text></g><g clip-path="url(#clip29)"><text font-family="Arial,Arial_MSFontService,sans-serif" font-weight="400" font-size="83" transform="matrix(1 0 0 1 2228.55 9689)">Replies</text></g><text font-family="Arial,Arial_MSFontService,sans-serif" font-weight="400" font-size="83" transform="matrix(1 0 0 1 2526.6 9689)">to the question, </text><g clip-path="url(#clip30)"><text font-family="Arial,Arial_MSFontService,sans-serif" font-style="italic" font-weight="400" font-size="83" transform="matrix(1 0 0 1 3113.64 9689)">Did you had to delay the completion of your degree because of money for </text></g><g clip-path="url(#clip31)"><text font-family="Arial,Arial_MSFontService,sans-serif" font-style="italic" font-weight="400" font-size="83" transform="matrix(1 0 0 1 2228.55 9784)">food, rent etc?, </text></g><g clip-path="url(#clip32)"><text font-family="Arial,Arial_MSFontService,sans-serif" font-weight="400" font-size="83" transform="matrix(1 0 0 1 2801.76 9784)">survey applied to UTEP students in 2022.</text></g><text font-family="Arial,Arial_MSFontService,sans-serif" font-weight="700" font-size="128" transform="matrix(1 0 0 1 2422.02 9402)">Gender</text><text font-family="Arial,Arial_MSFontService,sans-serif" font-weight="700" font-size="128" transform="matrix(1 0 0 1 2906.96 9402)">and Ethnicity Differences in Delaying Degree </text><g clip-path="url(#clip33)"><text font-family="Arial,Arial_MSFontService,sans-serif" font-weight="700" font-size="128" transform="matrix(1 0 0 1 3620.22 9550)">Completation</text></g><g clip-path="url(#clip34)"><path d="M1907.06 11495.4 2054.07 11495.4 2054.07 11282.4 1907.06 11282.4ZM1966.06 11175.4 2054.07 11175.4 2054.07 10963.4 1966.06 10963.4ZM1892.06 10537.3 2054.07 10537.3 2054.07 10324.3 1892.06 10324.3ZM1958.06 10218.3 2054.07 10218.3 2054.07 10005.3 1958.06 10005.3Z" fill="#EDAD88"/></g><g clip-path="url(#clip35)"><path d="M0 0 0.000360892 1597" stroke="#D9D9D9" stroke-width="3.4375" stroke-linejoin="round" stroke-miterlimit="10" fill="none" fill-rule="evenodd" transform="matrix(1 0 0 -1 2054.5 11548.5)"/></g><g clip-path="url(#clip36)"><path d="M2054.5 11548.5 2076.5 11548.5M2054.5 11228.9 2076.5 11228.9M2054.5 10909.9 2076.5 10909.9M2054.5 10590.8 2076.5 10590.8M2054.5 10270.8 2076.5 10270.8M2054.5 9951.5 2076.5 9951.5" stroke="#D9D9D9" stroke-width="3.4375" stroke-linejoin="round" stroke-miterlimit="10" fill="none"/></g><g clip-path="url(#clip37)"><text fill="#404040" font-family="Arial,Arial_MSFontService,sans-serif" font-weight="700" font-size="64" transform="matrix(1 0 0 1 1751.01 11412)">20%</text></g><g clip-path="url(#clip38)"><text fill="#404040" font-family="Arial,Arial_MSFontService,sans-serif" font-weight="700" font-size="64" transform="matrix(1 0 0 1 1809.94 11093)">12%</text></g><g clip-path="url(#clip39)"><text fill="#404040" font-family="Arial,Arial_MSFontService,sans-serif" font-weight="700" font-size="64" transform="matrix(1 0 0 1 1736.28 10454)">22%</text></g><g clip-path="url(#clip40)"><text fill="#404040" font-family="Arial,Arial_MSFontService,sans-serif" font-weight="700" font-size="64" transform="matrix(1 0 0 1 1802.57 10135)">13%</text></g><g clip-path="url(#clip41)"><text fill="#595959" font-family="Arial,Arial_MSFontService,sans-serif" font-weight="700" font-size="73" transform="matrix(1 0 0 1 2117.34 11412)">Hispanic</text></g><g clip-path="url(#clip42)"><text fill="#595959" font-family="Arial,Arial_MSFontService,sans-serif" font-weight="700" font-size="73" transform="matrix(1 0 0 1 2117.34 11092)">Non-Hispanic</text></g><g clip-path="url(#clip43)"><text fill="#595959" font-family="Arial,Arial_MSFontService,sans-serif" font-weight="700" font-size="73" transform="matrix(1 0 0 1 2117.34 10454)">Female</text></g><g clip-path="url(#clip44)"><text fill="#595959" font-family="Arial,Arial_MSFontService,sans-serif" font-weight="700" font-size="73" transform="matrix(1 0 0 1 2117.34 10134)">Male</text></g><rect x="2431" y="11585" width="24" height="26" fill="#FFFFFF"/><rect x="2932" y="11592" width="24" height="26" fill="#FFFFFF"/></g></svg>